<svg width="37" height="37" viewBox="0 0 37 37" fill="none" xmlns="http://www.w3.org/2000/svg">
<path d="M29 30.5H8C7.60218 30.5 7.22064 30.342 6.93934 30.0607C6.65804 29.7794 6.5 29.3978 6.5 29V23C6.5 22.6022 6.65804 22.2206 6.93934 21.9393C7.22064 21.658 7.60218 21.5 8 21.5C8.39782 21.5 8.77936 21.658 9.06066 21.9393C9.34196 22.2206 9.5 22.6022 9.5 23V27.2C9.5 27.2796 9.53161 27.3559 9.58787 27.4121C9.64413 27.4684 9.72043 27.5 9.8 27.5H27.2C27.2796 27.5 27.3559 27.4684 27.4121 27.4121C27.4684 27.3559 27.5 27.2796 27.5 27.2V23C27.5 22.6022 27.658 22.2206 27.9393 21.9393C28.2206 21.658 28.6022 21.5 29 21.5C29.3978 21.5 29.7794 21.658 30.0607 21.9393C30.342 22.2206 30.5 22.6022 30.5 23V29C30.5 29.3978 30.342 29.7794 30.0607 30.0607C29.7794 30.342 29.3978 30.5 29 30.5Z" fill="#004098"/>
<path d="M12.9377 13.5737C13.0771 13.7143 13.243 13.8259 13.4258 13.902C13.6086 13.9782 13.8046 14.0174 14.0027 14.0174C14.2007 14.0174 14.3967 13.9782 14.5795 13.902C14.7623 13.8259 14.9282 13.7143 15.0677 13.5737L17.0027 11.6237L17.0027 23.0087C17.0027 23.4065 17.1607 23.7881 17.442 24.0694C17.7233 24.3507 18.1048 24.5087 18.5027 24.5087C18.9005 24.5087 19.282 24.3507 19.5633 24.0694C19.8446 23.7881 20.0027 23.4065 20.0027 23.0087L20.0027 11.6237L21.9377 13.5737C22.0775 13.7136 22.2435 13.8245 22.4263 13.9002C22.609 13.9759 22.8049 14.0148 23.0027 14.0148C23.2004 14.0148 23.3963 13.9759 23.579 13.9002C23.7618 13.8245 23.9278 13.7136 24.0677 13.5737C24.2075 13.4338 24.3185 13.2678 24.3941 13.0851C24.4698 12.9023 24.5088 12.7065 24.5088 12.5087C24.5088 12.3109 24.4698 12.1151 24.3941 11.9323C24.3185 11.7496 24.2075 11.5836 24.0677 11.4437L19.5677 6.9437C19.4282 6.80311 19.2623 6.69151 19.0795 6.61536C18.8967 6.53921 18.7007 6.5 18.5027 6.5C18.3046 6.5 18.1086 6.5392 17.9258 6.61536C17.743 6.69151 17.5771 6.80311 17.4377 6.9437L12.9377 11.4437C12.7971 11.5831 12.6855 11.749 12.6093 11.9318C12.5332 12.1146 12.494 12.3107 12.494 12.5087C12.494 12.7067 12.5332 12.9028 12.6093 13.0856C12.6855 13.2684 12.7971 13.4343 12.9377 13.5737Z" fill="#004098"/>
</svg>
